<svg xmlns="http://www.w3.org/2000/svg" id="SvgjsSvg264771" width="4096" height="1127.806483803578" version="1.1" xmlns:xlink="http://www.w3.org/1999/xlink" xmlns:svgjs="http://svgjs.com/svgjs"><defs id="SvgjsDefs264772"></defs><g id="SvgjsG264773" transform="translate(328, 328.00000000000006) scale(34.4)" opacity="1"><defs id="SvgjsDefs80394"><linearGradient id="SvgjsLinearGradientbncnUJcc_" gradientUnits="userSpaceOnUse" x1="14.955000035647256" y1="86.2420000356472" x2="85.04400010694165" y2="16.152999964352787"><stop id="SvgjsStop80397" stop-color="#1a97fc" offset="0.05"></stop><stop id="SvgjsStop80398" stop-color="#1c6ed9" offset="0.95"></stop></linearGradient></defs><g id="SvgjsG80395" transform="scale(0.23774304876131014)" opacity="1"><g id="SvgjsG80399" class="bIM0qs9Wz" transform="translate(-3.9526164500411305, -34.592208793808254) scale(1.239064717881233)" light-content="false" non-strokable="false" fill="url(#SvgjsLinearGradientbncnUJcc_)"><path d="M84.913 41.115c-.994 0-9.46-5.533-13.271-8.184-3.811-2.651-5.138 1.491-7.789 2.65-2.65 1.16-6.297-1.822-6.96-2.485-.662-.664-4.575-5.178-6.894-5.178s-6.231 4.515-6.894 5.178c-.662.663-4.309 3.645-6.959 2.485-2.65-1.159-3.979-5.301-7.789-2.65-3.81 2.65-12.277 8.184-13.271 8.184C8.449 43.67 3.19 47.961 3.19 57.396c0 9.434 7.647 17.081 17.081 17.081 9.302 0 13.583-7.139 14.498-8.056 3.051-3.406 10.508-10.863 11.377-12.728.87-1.863.787-3.272-.58-4.764-1.368-1.492-2.608-4.611-.704-5.634 1.214-.651 3.646-.788 5.137-.788s3.923.136 5.137.788c1.904 1.022.664 4.142-.703 5.634-1.367 1.491-1.451 2.9-.581 4.764.87 1.864 8.327 9.321 11.378 12.728.914.917 5.197 8.056 14.498 8.056 9.435 0 17.081-7.647 17.081-17.081.001-9.435-5.258-13.726-11.896-16.281zM20.271 70.819c-7.415 0-13.42-6.012-13.42-13.423 0-7.415 6.006-13.424 13.42-13.424s13.42 6.009 13.42 13.424c.001 7.412-6.005 13.423-13.42 13.423zm59.458 0c-7.415 0-13.421-6.012-13.421-13.423 0-7.415 6.006-13.424 13.421-13.424 7.414 0 13.421 6.009 13.421 13.424-.001 7.412-6.007 13.423-13.421 13.423z"></path><path d="M11.807 59.371c1.033.164 14.255-11.434 8.867-10.854s-9.901 10.689-8.867 10.854zm59.457 0c1.033.164 14.256-11.434 8.867-10.854-5.39.579-9.901 10.689-8.867 10.854z"></path></g><g id="SvgjsG80400" class="text" transform="translate(279.17220428679923, 46.01999908447266) scale(1)" light-content="false" fill="#1a97fc"><path d="M-132.22 -36.9L-132.22 -43.56L-139.59 -43.56L-139.59 -36.9ZM-132.22 0L-132.22 -30.61L-139.59 -30.61L-139.59 0Z M-90.37 -28.35C-90.65 -29.07 -91.1 -29.62 -91.72 -30.02C-92.33 -30.42 -93 -30.61 -93.74 -30.61L-120.36 -30.61L-120.36 -23.25L-102.66 -23.25L-119.6 -6.32C-120.14 -5.77 -120.49 -5.13 -120.63 -4.4C-120.77 -3.68 -120.7 -2.96 -120.42 -2.27C-120.12 -1.6 -119.66 -1.06 -119.04 -0.64C-118.43 -0.21 -117.75 0 -116.99 0L-90.43 0L-90.43 -7.36L-108.13 -7.36L-91.11 -24.36C-90.6 -24.88 -90.27 -25.51 -90.13 -26.22C-89.99 -26.94 -90.07 -27.65 -90.37 -28.35Z M-52.6 -16.99L-52.6 -23.62L-79.16 -23.62L-79.16 -16.99Z M-10.46 -10.34C-10.46 -11.38 -10.65 -12.5 -11.01 -13.71C-11.38 -14.92 -11.97 -16.03 -12.78 -17.06C-13.6 -18.09 -14.66 -18.95 -15.98 -19.63C-17.31 -20.31 -18.91 -20.65 -20.8 -20.65L-32.21 -20.65C-32.38 -20.65 -32.56 -20.65 -32.74 -20.66C-32.91 -20.67 -33.08 -20.71 -33.22 -20.79C-33.36 -20.86 -33.48 -20.99 -33.57 -21.16C-33.67 -21.33 -33.72 -21.56 -33.74 -21.86C-33.74 -22.01 -33.73 -22.17 -33.71 -22.33C-33.69 -22.49 -33.63 -22.64 -33.53 -22.78C-33.42 -22.93 -33.26 -23.04 -33.05 -23.12C-32.83 -23.21 -32.53 -23.25 -32.15 -23.25L-14.11 -23.25L-14.11 -30.61L-32.21 -30.61C-33.12 -30.61 -34.09 -30.46 -35.13 -30.15C-36.17 -29.84 -37.13 -29.33 -38.02 -28.63C-38.9 -27.93 -39.64 -27.02 -40.23 -25.9C-40.81 -24.78 -41.1 -23.39 -41.1 -21.75C-41.1 -20.9 -40.95 -19.98 -40.64 -19C-40.33 -18.02 -39.82 -17.11 -39.11 -16.26C-38.4 -15.41 -37.48 -14.7 -36.35 -14.13C-35.21 -13.57 -33.84 -13.28 -32.21 -13.28L-20.8 -13.28C-18.91 -13.28 -17.92 -12.3 -17.82 -10.34C-17.82 -9.37 -18.08 -8.64 -18.59 -8.13C-19.1 -7.62 -19.85 -7.36 -20.86 -7.36L-40.74 -7.36L-40.74 0L-20.8 0C-20.1 0 -19.36 -0.08 -18.58 -0.24C-17.79 -0.4 -17.02 -0.65 -16.25 -0.99C-15.49 -1.33 -14.76 -1.77 -14.06 -2.31C-13.36 -2.85 -12.75 -3.5 -12.22 -4.26C-11.69 -5.03 -11.26 -5.91 -10.94 -6.92C-10.62 -7.93 -10.46 -9.07 -10.46 -10.34Z M32.1 -10.14L32.1 -20.48C32.1 -22.33 31.76 -23.9 31.08 -25.19C30.4 -26.48 29.55 -27.53 28.54 -28.33C27.53 -29.14 26.44 -29.72 25.26 -30.08C24.08 -30.43 22.98 -30.61 21.96 -30.61L5.79 -30.61L5.79 -23.62L21.96 -23.62C22.87 -23.62 23.62 -23.34 24.21 -22.77C24.81 -22.2 25.1 -21.44 25.1 -20.48L25.1 -10.2C25.1 -9.29 24.83 -8.53 24.28 -7.93C23.73 -7.33 22.96 -7.02 21.96 -7.02L8.73 -7.02C7.87 -7.02 7.12 -7.29 6.48 -7.83C5.85 -8.37 5.53 -9.12 5.53 -10.08C5.53 -10.99 5.81 -11.75 6.36 -12.36C6.9 -12.98 7.68 -13.28 8.68 -13.28L21.96 -13.28L21.96 -20.31L8.68 -20.31C6.83 -20.31 5.26 -19.97 3.96 -19.29C2.67 -18.61 1.62 -17.76 0.82 -16.75C0.02 -15.74 -0.56 -14.64 -0.92 -13.45C-1.28 -12.26 -1.46 -11.16 -1.46 -10.14C-1.46 -8.29 -1.12 -6.72 -0.44 -5.42C0.24 -4.13 1.08 -3.08 2.09 -2.28C3.1 -1.48 4.2 -0.9 5.38 -0.54C6.56 -0.18 7.66 0 8.68 0L21.96 0C23.81 0 25.38 -0.34 26.67 -1.02C27.97 -1.7 29.02 -2.54 29.82 -3.55C30.62 -4.56 31.2 -5.66 31.56 -6.84C31.92 -8.02 32.1 -9.12 32.1 -10.14Z M57.64 0L57.64 -7.36L54.35 -7.36C53.5 -7.36 52.79 -7.63 52.23 -8.17C51.66 -8.71 51.38 -9.43 51.38 -10.34L51.38 -43.56L44.02 -43.56L44.02 -10.34C44.02 -8.43 44.36 -6.82 45.03 -5.51C45.71 -4.2 46.57 -3.13 47.61 -2.31C48.65 -1.49 49.77 -0.9 50.97 -0.54C52.17 -0.18 53.3 0 54.35 0Z M101.1 -20.48C101.1 -22.33 100.76 -23.9 100.08 -25.19C99.4 -26.48 98.56 -27.53 97.55 -28.33C96.54 -29.14 95.44 -29.72 94.26 -30.08C93.08 -30.43 91.98 -30.61 90.96 -30.61L77.68 -30.61C75.83 -30.61 74.26 -30.27 72.97 -29.59C71.67 -28.92 70.63 -28.07 69.82 -27.06C69.02 -26.05 68.44 -24.95 68.08 -23.77C67.72 -22.59 67.54 -21.5 67.54 -20.48L67.54 -10.14C67.54 -8.29 67.88 -6.72 68.56 -5.42C69.24 -4.13 70.09 -3.08 71.1 -2.28C72.11 -1.48 73.2 -0.9 74.38 -0.54C75.56 -0.18 76.66 0 77.68 0L90.96 0L90.96 -7.02L77.74 -7.02C76.83 -7.02 76.07 -7.3 75.46 -7.84C74.85 -8.39 74.54 -9.16 74.54 -10.14L74.54 -20.42C74.54 -21.33 74.81 -22.09 75.36 -22.7C75.91 -23.31 76.68 -23.62 77.68 -23.62L90.96 -23.62C91.83 -23.62 92.57 -23.35 93.19 -22.8C93.8 -22.25 94.11 -21.5 94.11 -20.53C94.11 -19.63 93.83 -18.87 93.29 -18.25C92.74 -17.64 91.97 -17.33 90.96 -17.33L77.68 -17.33L77.68 -10.34L90.96 -10.34C92.82 -10.34 94.39 -10.68 95.68 -11.36C96.97 -12.04 98.02 -12.88 98.82 -13.89C99.63 -14.9 100.21 -16 100.57 -17.18C100.92 -18.36 101.1 -19.46 101.1 -20.48Z M141.45 -10.34C141.45 -11.38 141.27 -12.5 140.9 -13.71C140.53 -14.92 139.94 -16.03 139.13 -17.06C138.32 -18.09 137.25 -18.95 135.93 -19.63C134.61 -20.31 133.01 -20.65 131.12 -20.65L119.7 -20.65C119.53 -20.65 119.36 -20.65 119.18 -20.66C119 -20.67 118.84 -20.71 118.7 -20.79C118.56 -20.86 118.44 -20.99 118.34 -21.16C118.25 -21.33 118.19 -21.56 118.18 -21.86C118.18 -22.01 118.18 -22.17 118.2 -22.33C118.22 -22.49 118.28 -22.64 118.39 -22.78C118.49 -22.93 118.65 -23.04 118.87 -23.12C119.09 -23.21 119.38 -23.25 119.76 -23.25L137.8 -23.25L137.8 -30.61L119.7 -30.61C118.8 -30.61 117.83 -30.46 116.79 -30.15C115.75 -29.84 114.79 -29.33 113.9 -28.63C113.01 -27.93 112.27 -27.02 111.69 -25.9C111.1 -24.78 110.81 -23.39 110.81 -21.75C110.81 -20.9 110.97 -19.98 111.28 -19C111.59 -18.02 112.1 -17.11 112.81 -16.26C113.52 -15.41 114.44 -14.7 115.57 -14.13C116.7 -13.57 118.08 -13.28 119.7 -13.28L131.12 -13.28C133.01 -13.28 134 -12.3 134.09 -10.34C134.09 -9.37 133.84 -8.64 133.33 -8.13C132.82 -7.62 132.06 -7.36 131.06 -7.36L111.18 -7.36L111.18 0L131.12 0C131.82 0 132.56 -0.08 133.34 -0.24C134.12 -0.4 134.9 -0.65 135.66 -0.99C136.43 -1.33 137.16 -1.77 137.86 -2.31C138.56 -2.85 139.17 -3.5 139.7 -4.26C140.23 -5.03 140.65 -5.91 140.97 -6.92C141.29 -7.93 141.45 -9.07 141.45 -10.34Z"></path></g></g></g></svg>